<?xml version="1.0" standalone="no"?><!DOCTYPE svg PUBLIC "-//W3C//DTD SVG 1.1//EN" "http://www.w3.org/Graphics/SVG/1.1/DTD/svg11.dtd"><svg t="1711449073680" class="icon" viewBox="0 0 1024 1024" version="1.1" xmlns="http://www.w3.org/2000/svg" p-id="4343" xmlns:xlink="http://www.w3.org/1999/xlink" width="200" height="200"><path d="M982.408306 18.466839c-3.577415-16.618263-33.607551-23.264652-66.743305-14.767718l-298.185137 76.444925a9874.756874 9874.756874 0 0 1-120.706853 29.970589l-112.613009 27.061934c-33.264009 7.988492-68.51598 23.718127-78.355018 34.945074-9.839038 11.231527-17.882497 48.402752-17.882496 82.605775V708.413324l-62.162747-1.873448s-74.333288-2.258215-131.283361 57.353162c-68.996939 72.221651-79.390224 174.290216-23.214266 227.937706 56.171378 53.674974 157.64447 38.627842 226.65057-33.59839 37.125419-38.866031 44.614631-69.867245 44.614631-69.867245 8.029717-33.250267 14.644043-60.449618 14.694428-60.449618 0.054967 0 0.096192-27.982626 0.096192-62.19023V409.417428c0-34.203023 27.098579-69.175581 60.220591-77.704579l440.292355-113.410025c33.122012-8.528998 60.220591 12.472858 60.220591 46.675882v204.187515c0 34.207604-27.982626 62.199391-62.18565 62.208553 0 0-63.110922 0.022903-115.136895 54.476571-65.140109 68.204502-74.956244 164.593176-21.93171 215.267884 53.056598 50.674709 148.895605 36.452077 214.044875-31.743264 35.132877-36.795619 41.394499-62.895636 41.394499-62.895636 7.979331-33.259429 14.547851-60.467941 14.593657-60.467941 0.050386 0 0.08245-27.982626 0.08245-62.185649V110.856685c0.004581-34.203023-2.922396-75.776164-6.504392-92.389846zM321.136111 730.271745l-1.749773-1.676484c-2.001704-1.731451-1.868867-2.070412 0.288575-0.746631 2.157443 1.323781 3.920957 2.972782 3.920957 3.673607 0 0.700825-0.723728 0.503861-1.612356-0.430572 0.004581-0.009161 0.004581-0.009161-0.847403-0.81992z" fill="#00CCC6" p-id="4344"></path></svg>